<svg xmlns="http://www.w3.org/2000/svg" viewBox="0 0 400 300" width="800" height="600">
  <defs><linearGradient id="bg" x1="0.33" y1="0" x2="0.67" y2="1"><stop offset="0" stop-color="#E3F3F8"/><stop offset="1" stop-color="#C8E5EF"/></linearGradient></defs>
  <rect width="400" height="300" fill="url(#bg)"/>
  <ellipse cx="206" cy="256" rx="140" ry="10" fill="#0B3A5B" opacity=".1"/>
  <path d="M150 164C150 200 172 208 172 238" fill="none" stroke="#CBD5E1" stroke-width="13" stroke-linecap="round"/>
  <ellipse cx="172" cy="242" rx="48" ry="12" fill="#E2E8F0"/>
  <circle cx="150" cy="118" r="48" fill="#fff" stroke="#CBD5E1" stroke-width="2"/>
  <circle cx="150" cy="118" r="28" fill="#1E293B"/><circle cx="150" cy="118" r="14" fill="#0369A1"/>
  <circle cx="143" cy="111" r="4.5" fill="#fff" opacity=".75"/>
  <rect x="238" y="88" width="88" height="164" rx="18" fill="#0F172A"/>
  <rect x="245" y="100" width="74" height="140" rx="11" fill="#F0F9FF"/>
  <rect x="245" y="100" width="74" height="72" rx="11" fill="#0B3A5B"/>
  <circle cx="272" cy="140" r="9" fill="#FCD9B6"/>
  <path d="M258 162c10-14 42-15 54 0z" fill="#BAE6FD"/>
  <rect x="253" y="182" width="58" height="8" rx="4" fill="#BAE6FD"/>
  <rect x="253" y="196" width="40" height="8" rx="4" fill="#E2E8F0"/>
  <rect x="253" y="210" width="50" height="8" rx="4" fill="#E2E8F0"/>
  </svg>
